<svg xmlns="http://www.w3.org/2000/svg" enable-background="new 0 0 512 662.7" viewBox="0 0 512 662.7" id="soybean">
  <g>
    <g>
      <path fill="#1E1E1E" d="M487.1,600.6c-0.5,0-1,0-1.7-0.1c-77.7-6.3-167-9.1-167.9-9.1c-4.5-0.1-8-3.9-7.9-8.4s3.9-8.2,8.4-7.9
			c0.9,0,90.6,2.7,168.6,9.1c0.5,0,0.8,0,1-0.1l0.8-19.7c0.1-4.5,4-8,8.5-7.8c4.5,0.1,8,4,7.8,8.5l-0.9,20.2
			c-0.1,4.3-2.1,8.2-5.2,10.9C495.9,599.2,491.6,600.6,487.1,600.6z"></path>
      <path fill="#EDD5A9" d="M294.1,636.3c0,0,190.6-27.7,203.3-214.8c0,0,27.2-203.7-125.4-344.1c-43.6-40.1-98.1-66.8-156.9-74.9
			c-61.9-8.3-140.4,1.7-198,80.8c0,0-41.2,57.3,4,151.2c14.8,30.5,26,62.6,32.7,95.9c6.7,33.1,12.3,75.3,11.3,121.9
			C65.3,452.3,61.8,669.3,294.1,636.3z"></path>
      <path fill="#B59B6D" d="M95.3,356.6c-1.6,7.1-2.8,14.6-1.2,21.7c3.8,15.4,17.2,21,28.5,11.1c34.9-30.3-3.2-88.5-3.2-88.5
			s-17.1-28.6-36-18.1c-13.6,7.5-6.6,16,1,28.6c5.2,8.5,8.9,17.9,10.5,27.7C96.2,345,96.5,351.2,95.3,356.6z"></path>
      <path fill="#1E1E1E" d="M397.4,442.3c-16.2,0-62.5-6.2-78.9-9.8c-4.4-1-7.2-5.3-6.2-9.7c1-4.4,5.3-7.2,9.7-6.2
			c17.1,3.8,65.1,10,76.7,9.4c51.6-2.2,84-14.2,93.7-34.8c11.8-25.1-12.4-57.2-12.7-57.6c-2.7-3.6-2.1-8.7,1.6-11.5
			c3.6-2.7,8.7-2.1,11.4,1.6c1.3,1.7,30.5,40.2,14.6,74.4c-12.6,26.9-48.8,41.8-107.8,44.3C398.8,442.3,398,442.3,397.4,442.3z"></path>
      <path fill="#1E1E1E" d="M311.3,437.6c-6.5,0-11.9-4.8-12.7-11.4c-0.8-7,4.3-13.3,11.3-14.1c1-0.1,6.6-0.6,10.9-0.5
			c7,0.4,12.4,6.3,12,13.5c-0.4,7-6.3,12.4-13.5,12c-1.6-0.1-4.9,0.1-6.7,0.4C312.4,437.6,311.8,437.6,311.3,437.6z"></path>
      <path fill="#1E1E1E" d="M279.5,490.7c-11.1,0-21.5-2.1-30.9-6.1c-39.9-17-48.7-62.8-48.9-64.7c-0.8-4.4,2.2-8.7,6.6-9.4
			c4.4-0.8,8.7,2.1,9.4,6.6l0,0c0.1,0.4,7.6,39.2,39.3,52.5c28,11.8,66.5,1.6,114.5-30.5c7.5-5,28.5-23.7,42.3-36.1
			c4.8-4.3,9.1-8,12.3-10.9c3.4-3,8.5-2.6,11.5,0.8c3,3.4,2.6,8.5-0.8,11.5c-3.2,2.8-7.4,6.5-12.2,10.9
			c-15.9,14.2-35.7,31.8-44.1,37.5C340.7,478,307.6,490.7,279.5,490.7z"></path>
      <path fill="#1E1E1E" d="M426.5 412.7c-4.7 0-9.1-2.5-11.4-6.9-3.2-6.2-.9-14 5.4-17.2 3.8-1.9 9.1-3.8 10.1-4.1 6.7-2.2 14 1.4 16.2 8.2 2.2 6.7-1.4 14-8.2 16.2l0 0c-1.7.5-4.8 1.7-6.2 2.5C430.5 412.1 428.5 412.7 426.5 412.7zM333.1 662.7c-3.2 0-6.5-1.2-9.1-3.2-59-48.3-153.5-53.5-154.4-53.6-4.5-.3-8-4-7.8-8.5.3-4.5 4-8 8.5-7.8 4 .3 99.4 5.4 162.7 56.2l6.2-18.8c1.4-4.3 6.1-6.6 10.4-5.2 4.3 1.4 6.6 6.1 5.2 10.4l-6.5 19.2c-1.7 5-6 9.2-11.1 10.6C335.9 662.4 334.5 662.7 333.1 662.7z"></path>
      <g>
        <path fill="#D8B684" d="M237 346.3c0 0-7.1-14.9 17.7-20.2 22.8-4.8 37.1 8.4 23.2 19.3-2.5 1.9-5.2 3.1-8.2 3.9C261.6 351.6 241.7 355.8 237 346.3zM382.4 308.7c0 0-7-14.1 18.2-19.4 23.2-4.9 37.4 7.5 23.2 18-2.5 1.8-5.3 3.1-8.3 3.9C407.2 313.4 387 317.7 382.4 308.7z"></path>
        <path fill="#1E1E1E" d="M373.8 337.1c0 0 9.1-1.3 1.3-9.6-7.8-8.3-15.8-12.6-25.5-7.1-8.2 4.5-18.4 12.2-22 20.3-1.7 3.9 2.5 7.8 6.2 5.7 1.9-1 4.1-2.8 7-6 0 0 15.9-18.8 24.3-7.9C365 332.6 367.6 338.9 373.8 337.1zM290.2 263.1c2.2-1.7 6.2-9.6 5.3-13.6-.6-2.7-2.1-5.6-8-3.9-11 3.2-12.7 10.9-24.2 13.1-11.6 2.2-14.1 1.4-30 5.4-4.3 1.2-13.8 4.8-17.7 8.3-4.3 3.8-4.7 14.6 7 10.1 5.4-2.1 11.9-5.2 17.7-6.7 4-1 10.1-2.1 17.7-2.3C277 272.9 283.5 268.2 290.2 263.1zM287.5 287.8c1.8 0 7.4.5 8.9 1.8 1.7 1.4 3.1 4.3 1.8 10-2.7 11.3-30.2 22.8-54.2 17-18.1-4.4-19.2-12.7-10.4-16.6C241.8 296.3 279.1 287.8 287.5 287.8zM356.2 269.4c-1.6.6-6.2 3.2-7.1 4.9-1 1.9-1.2 4.9 2.1 9.3 6.5 8.8 26.7 5.7 45.6-8.3 14.2-10.5 11.1-19.9 2.1-20.2C390.3 255 363.6 266.3 356.2 269.4zM334.6 229.5c-.9 3.1-.6 6.2 3.1 7.4.9.3 1.9.3 2.8.1 1.2-.3 2.7-.6 4.5-1.4 5.8-2.7 12.2-4.3 18.6-4.5 8.2-.3 18.4.1 28 3.1 21.2 6.5 17.2-.8 15.7-3.4-1.6-2.5-7.6-6.5-12.8-7.1-4.1-.6-13.5-3.2-26.8-5.2-11.1-1.6-16.6-1.9-25 1.9C338.9 222.2 335.8 225.4 334.6 229.5z"></path>
      </g>
    </g>
  </g>
</svg>
